<svg width="25" height="34" viewBox="0 0 25 34" fill="none" xmlns="http://www.w3.org/2000/svg">
<path fill-rule="evenodd" clip-rule="evenodd" d="M0.300918 14.6875C1.60563 21.7006 8.6666 26.7375 12.0137 33.2427C15.3622 26.7389 22.4232 21.702 23.7279 14.6875C27.3712 -4.89585 -3.34241 -4.89585 0.300918 14.6875ZM12.0137 28.0281C15.4342 23.4538 20.0804 18.723 20.9281 14.1657C23.7322 -0.906952 0.295276 -0.906952 3.09935 14.1657C3.94847 18.7216 8.59325 23.4538 12.0137 28.0281Z" fill="#DD2020"/>
<path d="M12.0152 17.2325C14.9193 17.2325 17.2735 14.8783 17.2735 11.9742C17.2735 9.07006 14.9193 6.71582 12.0152 6.71582C9.11108 6.71582 6.75684 9.07006 6.75684 11.9742C6.75684 14.8783 9.11108 17.2325 12.0152 17.2325Z" fill="#DD2020"/>
</svg>
