<svg width="73" height="73" viewBox="0 0 73 73" fill="none" xmlns="http://www.w3.org/2000/svg">
<circle cx="36.0823" cy="36.6887" r="36.0823" fill="#DD2020" fill-opacity="0.4"/>
<circle cx="35.6088" cy="36.6088" r="27.6088" fill="#DD2020"/>
<path d="M42.0709 31.1469C42.0674 31.1468 42.0639 31.1475 42.0604 31.1475C42.0399 31.1475 42.0192 31.1491 41.9987 31.1519L41.4802 31.2232C41.3405 31.2424 41.2142 31.3163 41.1292 31.4286C41.0441 31.541 41.0072 31.6826 41.0265 31.8222L41.0984 32.34C41.1352 32.6057 41.3627 32.7981 41.6236 32.7981C41.6477 32.7981 41.6721 32.7965 41.6966 32.7931L42.2139 32.7219C42.5041 32.682 42.7072 32.4147 42.6677 32.1243L42.5971 31.6064C42.5781 31.4666 42.5043 31.3402 42.392 31.255C42.2992 31.1846 42.1862 31.1469 42.0709 31.1469ZM36.1235 26.1891C36.1231 26.1891 36.1227 26.1898 36.1223 26.1898C32.4942 26.1898 29.5532 29.1311 29.5532 32.7594C29.5532 36.3881 32.4949 39.3297 36.1235 39.3297C38.8833 39.3297 41.2457 37.6282 42.2188 35.2169C42.2465 35.1582 42.2576 35.1266 42.2576 35.1266L42.4281 34.6274C42.4737 34.4939 42.4643 34.3478 42.4021 34.2214C42.3399 34.095 42.23 33.9984 42.0966 33.953L41.601 33.7845C41.5455 33.7656 41.4877 33.7562 41.4301 33.7562C41.3493 33.7562 41.2689 33.7746 41.1952 33.811C41.0688 33.8734 40.9724 33.9834 40.9272 34.1169L40.76 34.5631C40.0379 36.4179 38.2342 37.7328 36.1235 37.7328C33.3768 37.7328 31.15 35.5062 31.15 32.7594C31.15 30.0125 33.3768 27.786 36.1235 27.786C37.6488 27.786 39.011 28.47 39.9233 29.551L40.2462 29.944C40.3507 30.0807 40.5086 30.1525 40.6683 30.1525C40.7806 30.1525 40.8937 30.1169 40.9899 30.0436L41.4051 29.7268C41.638 29.5492 41.683 29.2165 41.5056 28.9833L41.1324 28.4984C39.9273 27.0832 38.1269 26.1891 36.1235 26.1891ZM32.7338 23.6008C32.8565 23.6008 32.9808 23.6241 33.1004 23.6731L33.1024 23.6745L35.8334 24.8048C35.9239 24.842 36.0127 24.8571 36.0976 24.8571C36.2781 24.8571 36.4406 24.792 36.5619 24.7415L36.5631 24.741C38.4253 23.9532 39.0977 23.6883 39.137 23.6728L39.1382 23.6734C39.2586 23.6257 39.3828 23.6033 39.505 23.6033C39.6379 23.6033 39.7685 23.6298 39.8894 23.6797L39.8929 23.6819C40.1276 23.7783 40.3255 23.9653 40.432 24.2187C40.4535 24.2701 41.5394 26.8871 41.5394 26.8871C41.615 27.0685 41.759 27.2577 41.9854 27.3515L44.6831 28.4687L44.6814 28.4694C45.1785 28.6865 45.4131 29.2624 45.2078 29.7678C45.1948 29.7995 44.0985 32.4509 44.0985 32.4509C44.0151 32.6526 44.0187 32.8709 44.0971 33.0602L45.2065 35.7374C45.4173 36.245 45.1818 36.8266 44.6809 37.0461L41.9965 38.1591C41.8049 38.2357 41.6421 38.3882 41.5565 38.595C41.5048 38.7187 40.4535 41.253 40.4386 41.2888C40.2775 41.6781 39.9017 41.9154 39.5101 41.9154C39.3887 41.9154 39.2658 41.8926 39.1472 41.8445L39.1453 41.8451L36.4237 40.7194C36.328 40.6795 36.2327 40.6644 36.1415 40.6644C35.9932 40.6644 35.8554 40.7059 35.743 40.7526L33.1143 41.8408L33.114 41.8414C32.9918 41.8901 32.8655 41.9132 32.7411 41.9132C32.6074 41.9132 32.4758 41.8865 32.3539 41.836L32.3528 41.8362C32.1187 41.7386 31.9214 41.5542 31.8136 41.3035L31.8126 41.3038C31.8094 41.2931 30.7093 38.6393 30.706 38.6315C30.6293 38.4466 30.4857 38.2578 30.2577 38.1635C30.2433 38.1575 27.6561 37.0887 27.5743 37.0548L27.574 37.0555C27.0665 36.8383 26.8265 36.2528 27.0379 35.7419L28.1446 33.0687C28.2321 32.8574 28.2186 32.6347 28.1402 32.4458L27.034 29.7721C26.8283 29.267 27.0625 28.6908 27.5593 28.4714L27.5605 28.4721L30.2196 27.3676C30.4051 27.2905 30.5943 27.1493 30.6892 26.9198C31.7293 24.4083 31.8019 24.2333 31.8069 24.2214C31.9693 23.8354 32.3439 23.6008 32.7338 23.6008ZM42.1604 41.3195L45.0321 46.2933L42.1503 46.1818L42.1478 46.1825C42.1174 46.1783 42.087 46.1766 42.0567 46.1766C41.7811 46.1766 41.5143 46.3198 41.367 46.5718L41.3646 46.5725C41.3439 46.6069 41.3259 46.6436 41.3107 46.6818L41.3082 46.6824L39.9743 49.2136L37.0444 44.1389L37.7108 42.9848L38.5178 43.3186L38.5182 43.3195C38.8418 43.4519 39.1767 43.5145 39.5061 43.5145C40.531 43.5145 41.503 42.9076 41.9193 41.9019L42.1604 41.3195ZM30.0846 41.3197L30.3281 41.9049C30.6037 42.57 31.1234 43.0612 31.7399 43.3164L31.7405 43.3173C32.0545 43.4469 32.3939 43.5157 32.7392 43.5157C33.0649 43.5157 33.3958 43.4546 33.7158 43.3255L33.7176 43.3248L36.1231 42.3278L36.2226 42.369L32.2709 49.2136L30.9364 46.6809L30.9341 46.6816C30.9167 46.6372 30.8955 46.5955 30.871 46.556L30.8686 46.5567C30.7195 46.3138 30.4582 46.1766 30.1884 46.1766C30.1581 46.1766 30.1277 46.1783 30.0973 46.1818L30.095 46.1825L27.2134 46.2934L30.0846 41.3197ZM39.5056 22C39.1719 22 38.8328 22.0642 38.5064 22.1994L36.1182 23.1892C33.7123 22.1931 33.7073 22.1911 33.7073 22.1911C33.3879 22.0624 33.0568 22.0019 32.731 22.0019C31.7132 22.0019 30.7451 22.5987 30.3312 23.596L29.3356 26.001L26.9521 26.9889L26.9465 26.9914L26.9387 26.995C25.6349 27.5526 25.0045 29.0581 25.5486 30.3738L26.5377 32.7603L25.5572 35.1288C25.0091 36.4532 25.6315 37.9698 26.9481 38.5295L26.9492 38.5307L29.2896 39.5035L25.107 46.7479C24.9616 46.9997 24.9646 47.3106 25.1148 47.5595C25.2596 47.7995 25.5193 47.9454 25.7982 47.9454C25.8085 47.9454 25.8188 47.9452 25.8292 47.9448L29.7184 47.7943L31.5326 51.2377C31.6682 51.4949 31.9328 51.6582 32.2235 51.6638C32.2287 51.6639 32.2338 51.6639 32.239 51.6639C32.5238 51.6639 32.7875 51.512 32.9303 51.2648L36.1226 45.7356L39.3149 51.2648C39.4576 51.512 39.7214 51.6639 40.0061 51.6639C40.0113 51.6639 40.0165 51.6639 40.0217 51.6638C40.3124 51.6582 40.577 51.4949 40.7125 51.2377L42.5267 47.7943L46.4159 47.9448C46.4262 47.9452 46.4366 47.9454 46.4468 47.9454C46.7257 47.9454 46.9854 47.7995 47.1303 47.5595C47.2805 47.3106 47.2835 46.9996 47.1382 46.7479L42.9525 39.4981L45.2831 38.5312L45.2839 38.5308C46.6095 37.9752 47.2375 36.4524 46.6866 35.124L45.7053 32.7558L46.6934 30.3688C47.2406 29.0436 46.5972 27.5262 45.2739 26.9781L45.2733 26.9786L42.9021 26.0011L41.9075 23.5934C41.6341 22.9355 41.1186 22.4526 40.5083 22.1999L40.5051 22.1993C40.1911 22.0689 39.8512 22 39.5056 22Z" fill="white"/>
</svg>
