<svg width="73" height="73" viewBox="0 0 73 73" fill="none" xmlns="http://www.w3.org/2000/svg">
<circle cx="36.7561" cy="36.2385" r="36.0823" fill="#DD2020" fill-opacity="0.4"/>
<circle cx="36.7572" cy="36.2387" r="27.6088" fill="#DD2020"/>
<path d="M47.845 29.4151H44.4334V26.8564C44.4334 26.6302 44.3434 26.4133 44.1835 26.2534C44.0236 26.0935 43.8066 26.0035 43.5805 26.0035H41.0217V24.7241C41.0211 24.1588 40.7962 23.6167 40.3964 23.2171C39.9968 22.8173 39.4548 22.5924 38.8894 22.5918H38.0365C37.4711 22.5924 36.9291 22.8173 36.5295 23.2171C36.1297 23.6167 35.9048 24.1587 35.9042 24.7241V29.4152H25.6691C24.9907 29.416 24.3404 29.6857 23.8606 30.1654C23.3808 30.6452 23.1112 31.2955 23.1104 31.9739V47.3265C23.1112 48.005 23.3808 48.6553 23.8606 49.135C24.3404 49.6148 24.9907 49.8845 25.6691 49.8853H40.9183C41.4842 49.8869 42.0271 49.6618 42.4261 49.2606L49.7793 41.9073C50.1806 41.5083 50.4057 40.9655 50.404 40.3995V31.9737C50.4032 31.2953 50.1335 30.645 49.6538 30.1652C49.174 29.6854 48.5237 29.4158 47.8453 29.415L47.845 29.4151ZM37.61 24.7241C37.6102 24.4888 37.8011 24.2978 38.0364 24.2976H38.8894C39.1247 24.2978 39.3156 24.4888 39.3158 24.7241V26.0035H37.61V24.7241ZM37.61 27.7093H39.3158V34.9591H37.61V27.7093ZM42.3011 46.9736V42.6357C42.3013 42.4095 42.3912 42.1928 42.5511 42.0328C42.7111 41.8729 42.9278 41.783 43.154 41.7827H47.4919L42.3011 46.9736ZM48.698 40.0767H43.154C42.4755 40.0775 41.8252 40.3471 41.3455 40.8269C40.8657 41.3067 40.596 41.957 40.5952 42.6354V48.1794H25.6691C25.4429 48.1792 25.2262 48.0892 25.0662 47.9293C24.9063 47.7694 24.8164 47.5526 24.8161 47.3265V31.9739C24.8164 31.7477 24.9063 31.531 25.0662 31.371C25.2262 31.2111 25.4429 31.1211 25.6691 31.1209H35.9041V35.812C35.9041 36.0381 35.9941 36.2551 36.154 36.415C36.3139 36.5749 36.5309 36.6649 36.757 36.6649H37.61V38.7972C37.61 39.1018 37.7726 39.3836 38.0364 39.5358C38.3002 39.6882 38.6255 39.6882 38.8893 39.5358C39.1532 39.3836 39.3158 39.1018 39.3158 38.7972V36.6649H40.1687C40.3949 36.6649 40.6118 36.5749 40.7717 36.415C40.9316 36.2551 41.0216 36.0381 41.0216 35.812V27.7093H42.7275V31.5474C42.7275 31.852 42.8901 32.1338 43.1539 32.286C43.4177 32.4384 43.743 32.4384 44.0068 32.286C44.2707 32.1338 44.4333 31.852 44.4333 31.5474V31.1209H47.845C48.0711 31.1211 48.2879 31.2111 48.4478 31.371C48.6078 31.5309 48.6977 31.7477 48.6979 31.9739L48.698 40.0767Z" fill="white"/>
<path d="M34.6244 39.6504H29.0804C28.7758 39.6504 28.4941 39.813 28.3419 40.0769C28.1894 40.3407 28.1894 40.666 28.3419 40.9298C28.4941 41.1936 28.7758 41.3562 29.0804 41.3562H34.6244C34.9291 41.3562 35.2108 41.1936 35.363 40.9298C35.5154 40.6659 35.5154 40.3407 35.363 40.0769C35.2108 39.813 34.929 39.6504 34.6244 39.6504Z" fill="white"/>
<path d="M34.6244 43.0615H29.0804C28.7758 43.0615 28.4941 43.2242 28.3419 43.488C28.1894 43.7518 28.1894 44.0771 28.3419 44.3409C28.4941 44.6047 28.7758 44.7674 29.0804 44.7674H34.6244C34.9291 44.7674 35.2108 44.6047 35.363 44.3409C35.5154 44.0771 35.5154 43.7518 35.363 43.488C35.2108 43.2242 34.929 43.0615 34.6244 43.0615Z" fill="white"/>
</svg>
