<svg width="34" height="35" viewBox="0 0 34 35" fill="none" xmlns="http://www.w3.org/2000/svg">
<mask id="path-1-outside-1_267_5154" maskUnits="userSpaceOnUse" x="0.697266" y="4.43652" width="30" height="30" fill="black">
<rect fill="white" x="0.697266" y="4.43652" width="30" height="30"/>
<path d="M26.96 24.3094L22.1751 21.917C21.9506 21.8049 21.6964 21.7663 21.4486 21.8066C21.2009 21.847 20.9721 21.9643 20.7947 22.1419L18.7911 24.1455C15.9118 23.6826 11.3746 19.1465 10.9128 16.2673L12.9165 14.2636C13.094 14.0862 13.2113 13.8574 13.2517 13.6097C13.292 13.3619 13.2534 13.1078 13.1414 12.8832L10.7489 8.09833C10.6706 7.94149 10.5588 7.80378 10.4213 7.69495C10.2839 7.58612 10.1242 7.50882 9.95362 7.46854C9.783 7.42825 9.60562 7.42596 9.43402 7.46182C9.26242 7.49768 9.1008 7.57083 8.9606 7.67607L4.17575 11.2647C4.02719 11.3761 3.9066 11.5206 3.82355 11.6867C3.7405 11.8528 3.69727 12.036 3.69727 12.2217C3.69727 23.6694 11.3889 31.3611 22.8367 31.3611C23.0224 31.3611 23.2055 31.3178 23.3716 31.2348C23.5377 31.1517 23.6822 31.0311 23.7936 30.8826L27.3823 26.0977C27.4875 25.9575 27.5606 25.7959 27.5965 25.6243C27.6324 25.4527 27.6301 25.2753 27.5898 25.1047C27.5495 24.9341 27.4722 24.7744 27.3634 24.637C27.2545 24.4995 27.1168 24.3877 26.96 24.3094Z"/>
</mask>
<path d="M26.96 24.3094L25.6184 26.9927L25.6198 26.9934L26.96 24.3094ZM22.1751 21.917L23.5168 19.2337L23.5148 19.2327L22.1751 21.917ZM20.7947 22.1419L22.916 24.2632L22.9171 24.2621L20.7947 22.1419ZM18.7911 24.1455L18.3148 27.1075L19.8284 27.3508L20.9124 26.2668L18.7911 24.1455ZM10.9128 16.2673L8.79149 14.1459L7.70804 15.2294L7.95066 16.7423L10.9128 16.2673ZM12.9165 14.2636L10.7962 12.1412L10.7951 12.1423L12.9165 14.2636ZM13.1414 12.8832L15.8256 11.5435L15.8246 11.5415L13.1414 12.8832ZM10.7489 8.09833L8.06495 9.43857L8.06565 9.43997L10.7489 8.09833ZM8.9606 7.67607L10.7606 10.0761L10.7616 10.0753L8.9606 7.67607ZM4.17575 11.2647L2.37575 8.8647L4.17575 11.2647ZM3.69727 12.2217H0.697266H3.69727ZM23.7936 30.8826L21.3936 29.0826L23.7936 30.8826ZM27.3823 26.0977L24.983 24.2967L24.9823 24.2977L27.3823 26.0977ZM28.3016 21.6261L23.5168 19.2337L20.8335 24.6003L25.6184 26.9927L28.3016 21.6261ZM23.5148 19.2327C22.7269 18.8395 21.8353 18.7041 20.9663 18.8457L21.931 24.7676C21.5574 24.8285 21.1742 24.7703 20.8355 24.6013L23.5148 19.2327ZM20.9663 18.8457C20.0972 18.9873 19.2947 19.3986 18.6724 20.0216L22.9171 24.2621C22.6496 24.5299 22.3046 24.7067 21.931 24.7676L20.9663 18.8457ZM18.6734 20.0205L16.6697 22.0242L20.9124 26.2668L22.916 24.2632L18.6734 20.0205ZM19.2673 21.1836C19.1169 21.1594 18.6918 21.022 18.0261 20.5964C17.3987 20.1954 16.7141 19.6385 16.0666 18.9911C15.4191 18.3437 14.8623 17.6592 14.4614 17.032C14.0359 16.3665 13.899 15.942 13.875 15.7922L7.95066 16.7423C8.15752 18.0322 8.76086 19.2544 9.406 20.2636C10.0757 21.3112 10.9197 22.3296 11.8241 23.2339C12.7286 24.1383 13.747 24.9822 14.7945 25.6518C15.8038 26.297 17.0256 26.9002 18.3148 27.1075L19.2673 21.1836ZM13.0341 18.3886L15.0378 16.3849L10.7951 12.1423L8.79149 14.1459L13.0341 18.3886ZM15.0367 16.386C15.6597 15.7636 16.0711 14.9611 16.2126 14.0921L10.2907 13.1273C10.3516 12.7537 10.5284 12.4088 10.7962 12.1412L15.0367 16.386ZM16.2126 14.0921C16.3542 13.223 16.2188 12.3314 15.8256 11.5435L10.4571 14.2228C10.2881 13.8841 10.2299 13.5009 10.2907 13.1273L16.2126 14.0921ZM15.8246 11.5415L13.4322 6.75669L8.06565 9.43997L10.4581 14.2248L15.8246 11.5415ZM13.4329 6.7581C13.1582 6.20791 12.7659 5.72484 12.2838 5.34306L8.55892 10.0468C8.35168 9.88273 8.18305 9.67507 8.06495 9.43857L13.4329 6.7581ZM12.2838 5.34306C11.8017 4.96129 11.2415 4.69014 10.643 4.54882L9.26422 10.3882C9.00694 10.3275 8.76616 10.2109 8.55892 10.0468L12.2838 5.34306ZM10.643 4.54882C10.0445 4.4075 9.42226 4.39946 8.82031 4.52527L10.0477 10.3984C9.78897 10.4525 9.52149 10.449 9.26422 10.3882L10.643 4.54882ZM8.82031 4.52527C8.21835 4.65107 7.6514 4.90765 7.15958 5.27683L10.7616 10.0753C10.5502 10.234 10.3065 10.3443 10.0477 10.3984L8.82031 4.52527ZM7.1606 5.27607L2.37575 8.8647L5.97575 13.6647L10.7606 10.0761L7.1606 5.27607ZM2.37575 8.8647C1.8546 9.25557 1.43161 9.7624 1.14027 10.3451L6.50683 13.0284C6.3816 13.2788 6.19977 13.4967 5.97575 13.6647L2.37575 8.8647ZM1.14027 10.3451C0.848938 10.9277 0.697266 11.5702 0.697266 12.2217H6.69727C6.69727 12.5017 6.63207 12.7779 6.50683 13.0284L1.14027 10.3451ZM0.697266 12.2217C0.697266 18.6332 2.86423 24.2171 6.85273 28.2056C10.8412 32.1941 16.4251 34.3611 22.8367 34.3611V28.3611C17.8004 28.3611 13.8146 26.6822 11.0954 23.963C8.37613 21.2437 6.69727 17.2579 6.69727 12.2217H0.697266ZM22.8367 34.3611C23.4881 34.3611 24.1306 34.2094 24.7133 33.9181L22.03 28.5515C22.2804 28.4263 22.5566 28.3611 22.8367 28.3611V34.3611ZM24.7133 33.9181C25.2959 33.6267 25.8028 33.2037 26.1936 32.6826L21.3936 29.0826C21.5616 28.8586 21.7795 28.6767 22.03 28.5515L24.7133 33.9181ZM26.1936 32.6826L29.7823 27.8977L24.9823 24.2977L21.3936 29.0826L26.1936 32.6826ZM29.7815 27.8987C30.1507 27.407 30.4073 26.84 30.5331 26.238L24.66 25.0106C24.714 24.7518 24.8243 24.5081 24.983 24.2967L29.7815 27.8987ZM30.5331 26.238C30.6589 25.636 30.6508 25.0138 30.5095 24.4153L24.6701 25.7941C24.6093 25.5369 24.6059 25.2694 24.66 25.0106L30.5331 26.238ZM30.5095 24.4153C30.3682 23.8168 30.097 23.2567 29.7153 22.7746L25.0115 26.4994C24.8474 26.2922 24.7308 26.0514 24.6701 25.7941L30.5095 24.4153ZM29.7153 22.7746C29.3335 22.2924 28.8504 21.9001 28.3002 21.6254L25.6198 26.9934C25.3833 26.8753 25.1756 26.7066 25.0115 26.4994L29.7153 22.7746Z" fill="#DD2020" mask="url(#path-1-outside-1_267_5154)"/>
<path d="M20.2656 1.88281C23.0624 2.27054 31.7549 1.88281 31.7549 13.7606" stroke="#DD2020" stroke-width="3"/>
<path d="M19.0645 7.82129C20.7554 8.05571 26.0107 7.82129 26.0107 15.0024" stroke="#DD2020" stroke-width="3"/>
</svg>
