<svg width="50" height="50" viewBox="0 0 50 50" fill="none" xmlns="http://www.w3.org/2000/svg">
<circle cx="24.9766" cy="25.1173" r="24.4991" fill="#4CC85B"/>
<path d="M20.6367 33.4726C22.1186 34.319 23.829 34.7993 25.6518 34.7993C31.2499 34.7993 35.7993 30.2468 35.7993 24.6497C35.7993 19.0525 31.2499 14.5 25.6518 14.5H25.6475C20.0495 14.5 15.5 19.0513 15.5 24.6497C15.5 26.61 16.0589 28.447 17.0287 30.0017L16.4732 32.2074L15.8695 34.6039L18.2741 34.0332L20.6367 33.4726Z" fill="#4CC85B" stroke="white" stroke-width="3"/>
<path d="M29.9591 28.8858L29.8857 28.9592C29.5198 29.328 29.0295 29.5471 28.5106 29.5734H28.1486C26.2327 29.5734 24.6926 28.8583 23.0656 27.2358C21.3376 25.5077 20.641 23.8806 20.7372 21.7906H20.7371C20.7634 21.2717 20.9825 20.7814 21.3513 20.4155L21.4246 20.3422C21.8886 19.8762 22.5445 19.6552 23.1958 19.7454C23.8472 19.8354 24.4185 20.2261 24.7386 20.8005L24.8395 20.9838H24.8394C24.9666 21.2158 25.0154 21.4827 24.9782 21.7447C24.9411 22.0066 24.8199 22.2495 24.6331 22.4369L24.0189 23.051C24.3735 23.7336 24.838 24.3529 25.394 24.8844C25.9255 25.4404 26.5449 25.9049 27.2274 26.2595L27.8369 25.6544C28.0287 25.4661 28.2771 25.3461 28.5439 25.3129C28.8106 25.2798 29.0808 25.3353 29.3129 25.4711L29.4962 25.572C30.0706 25.8921 30.4613 26.4633 30.5513 27.1147C30.6415 27.766 30.4205 28.4218 29.9545 28.8858L29.9591 28.8858Z" fill="white"/>
</svg>
