<svg width="150" height="107" viewBox="0 0 150 107" fill="none" xmlns="http://www.w3.org/2000/svg">
<path fill-rule="evenodd" clip-rule="evenodd" d="M136.197 48.5596H98.9343V58.7827H85.1348V52.0085C85.1348 46.6624 86.1513 42.9789 88.2009 40.987C90.2339 38.9745 94.1232 37.9785 99.8561 37.9785H135.279C141.049 37.9785 144.938 38.9745 146.971 40.95C148.984 42.9419 150 46.6253 150 52.0085V57.6262L136.201 59.8116V48.5596H136.197ZM98.9343 86.1677H136.197V73.4012L149.996 76.2574V83.2909C149.996 88.6782 148.963 92.3575 146.909 94.3494C144.839 96.3249 140.967 97.3208 135.275 97.3208H99.852C94.119 97.3208 90.2298 96.3413 88.1967 94.37C86.5299 92.7814 85.5504 90.0445 85.2377 86.1677H98.9301H98.9343Z" fill="white"/>
<path fill-rule="evenodd" clip-rule="evenodd" d="M95.012 10.5811H57.7497V23.22H83.3896V33.0151H57.7497V48.185H95.012V35.4185L108.811 38.2747V45.3082C108.811 50.6955 107.778 54.3748 105.725 56.3668C104.264 57.7619 101.897 58.6674 98.6296 59.0789H54.0704C50.8026 58.6715 48.4485 57.7743 47.0163 56.3832C44.9667 54.4283 43.9502 50.7284 43.9502 45.3041V14.03C43.9502 8.68384 44.9667 5.00041 47.0163 3.00848C49.0494 0.995966 52.9386 0 58.6716 0H94.0942C99.8643 0 103.753 0.995966 105.787 2.97144C107.799 4.96337 108.816 8.6468 108.816 14.03V19.6477L95.0161 21.8331V10.5811H95.012Z" fill="#DD2020"/>
<path fill-rule="evenodd" clip-rule="evenodd" d="M0 52.2267C0 46.9135 1.00831 43.2548 3.04963 41.2752C5.07037 39.2751 8.93489 38.2832 14.6308 38.2832H58.0624C63.7954 38.2832 67.664 39.2751 69.6806 41.2341C71.6808 43.2137 72.6891 46.8724 72.6891 52.2267V59.0874H58.976V48.7985H13.7131V86.1719L33.9616 86.1513L46.3824 86.1719H58.976H72.5821C72.2734 89.9911 71.2939 92.6992 69.6436 94.3084C67.6228 96.2715 63.7583 97.2592 58.0418 97.2592H51.6791L56.091 106.313H42.7977L38.8386 97.2592H14.6103C8.93489 97.2592 5.06626 96.288 3.04963 94.3248C1.01243 92.3823 0 88.7071 0 83.3157L0 52.2267Z" fill="white"/>
<path fill-rule="evenodd" clip-rule="evenodd" d="M29.3815 70.7419C30.3857 70.9518 31.1924 71.0588 31.7933 71.0588L31.3117 72.808C31.0607 72.9067 30.7232 72.9602 30.3034 72.9602C29.6696 72.9602 28.9165 72.8285 28.044 72.5693C27.7641 72.4787 27.4719 72.3676 27.1715 72.2359C26.871 72.1042 26.6858 72.026 26.6159 71.9931C25.8298 71.6433 25.1178 71.3716 24.4758 71.1864C23.8338 71.0012 23.0271 70.9066 22.0641 70.9066C21.0393 70.9066 20.3232 70.6926 19.9157 70.2604C19.5083 69.8283 19.3066 69.1451 19.3066 68.2109V64.7291C19.3066 63.8155 19.5083 63.1405 19.9075 62.7001C20.3108 62.2639 21.0269 62.0458 22.0641 62.0458H27.1139C28.1098 62.0458 28.8136 62.3092 29.2334 62.8277C29.6491 63.3504 29.8589 64.083 29.8589 65.0295V66.4C29.8589 67.2561 29.7602 67.9187 29.5585 68.392C29.3568 68.8652 29.007 69.2809 28.5049 69.6431C28.1139 69.9147 27.69 70.1205 27.2373 70.2604L28.579 70.5609L29.3939 70.7419H29.3815ZM22.2369 67.787C22.2369 68.1697 22.3275 68.4413 22.5085 68.6101C22.6896 68.7747 23.0024 68.857 23.4428 68.857H24.0601C24.805 68.857 25.3771 68.7788 25.7804 68.6224C26.1837 68.466 26.4718 68.1944 26.6488 67.8075C26.8258 67.4207 26.9122 66.861 26.9122 66.1284V65.1489C26.9122 64.8155 26.8134 64.5604 26.62 64.3711C26.4225 64.1859 26.1302 64.0912 25.7393 64.0912H23.4469C23.0148 64.0912 22.7061 64.1776 22.5209 64.3464C22.3357 64.5151 22.241 64.7826 22.241 65.1448V67.7829L22.2369 67.787ZM34.3408 70.9066C33.456 70.9066 32.8222 70.7419 32.4394 70.4086C32.0567 70.0752 31.8673 69.5237 31.8673 68.75C31.8673 68.0463 32.0649 67.5318 32.4559 67.2067C32.8468 66.8815 33.4765 66.7169 34.3408 66.7169H34.81C35.5837 66.7169 36.5632 66.7787 37.7485 66.898V66.6552C37.7485 66.4535 37.7073 66.3054 37.6291 66.2025C37.5468 66.1037 37.3493 66.0502 37.0241 66.0502H36.271C34.3696 66.0502 33.1596 66.0996 32.637 66.2025L32.4723 64.6056C32.4723 64.4657 32.851 64.3546 33.6041 64.2723C34.3573 64.1941 35.3368 64.1529 36.5426 64.1529H38.0489C38.9749 64.1529 39.6128 64.3464 39.9627 64.7332C40.3125 65.1201 40.4894 65.6716 40.4894 66.3836V70.9066H38.3494L37.7608 70.6061C36.8472 70.8078 35.8553 70.9066 34.7894 70.9066H34.3367H34.3408ZM37.2958 69.1286C37.4563 69.1286 37.5633 69.1204 37.6209 69.1081C37.6785 69.0957 37.7114 69.0587 37.7279 69.0011C37.7444 68.9476 37.7485 68.8406 37.7485 68.6924V68.1656H35.2174C35.0157 68.1656 34.8717 68.2026 34.7894 68.2808C34.703 68.3549 34.6618 68.4907 34.6618 68.68C34.6618 68.8611 34.703 68.9805 34.7812 69.0422C34.8635 69.1039 35.0075 69.1328 35.2174 69.1328H37.2999L37.2958 69.1286ZM41.9217 69.5525L45.7368 66.0708H42.2262V64.157H49.9141V65.5152L45.815 69.0134H49.7495L50.5026 70.7461C50.4738 70.7954 50.2968 70.8366 49.9758 70.8654C49.6548 70.8942 49.1733 70.9107 48.5271 70.9107H41.9258V69.5525H41.9217ZM52.0089 62.0458H61.6887V64.0953H54.9515V65.3464H59.9396V67.4413H54.9515V68.8447H61.45L62.3554 70.7461C62.3266 70.7954 62.1661 70.8366 61.8739 70.8654C61.5817 70.8942 61.1413 70.9107 60.5487 70.9107H52.0171V62.0458H52.0089ZM63.1045 70.3057L65.7137 67.5153L62.804 64.1529H66.0018L67.3888 66.0379H67.541L68.9568 64.1529H72.1669L71.9241 64.6344L69.1502 67.5153L72.1669 70.9066H68.9403L67.5369 69.0957H67.3847L65.9977 70.9066H62.7999L63.1004 70.3057H63.1045ZM73.2205 64.1529H75.3606L75.7393 64.3505C76.8546 64.2188 78.0069 64.1529 79.1922 64.1529H79.6449C80.5586 64.1529 81.1718 64.3505 81.4846 64.7497C81.7974 65.1448 81.9538 65.6921 81.9538 66.3836V68.6595C81.9538 69.3838 81.7562 69.9394 81.357 70.3263C80.9619 70.7131 80.2911 70.9066 79.3445 70.9066H78.8918C78.2374 70.9066 77.6036 70.8778 76.9904 70.8243C76.3772 70.7708 76.0356 70.7378 75.9656 70.7255V73.7093H73.2205V64.1529ZM78.4349 69.0052C78.686 69.0052 78.8712 68.9558 78.9864 68.8611C79.1017 68.7665 79.1593 68.6142 79.1593 68.4002V66.6511C79.1593 66.4288 79.114 66.2766 79.0235 66.186C78.9329 66.0955 78.7354 66.0502 78.4349 66.0502H78.2991C77.6159 66.0502 77.0768 66.0667 76.6858 66.1037C76.2949 66.1407 76.052 66.1613 75.9615 66.1696V68.536C75.9615 68.6965 75.9697 68.8076 75.9862 68.8694C76.0027 68.9311 76.0397 68.9681 76.0973 68.9805C76.159 68.9969 76.2702 69.0052 76.4307 69.0052H78.4349ZM85.7607 70.9066C85.1186 70.9066 84.6289 70.816 84.2996 70.6349C83.9663 70.4539 83.744 70.2028 83.6288 69.8818C83.5135 69.5608 83.4559 69.1533 83.4559 68.6595V66.3836C83.4559 65.9103 83.5135 65.5152 83.6288 65.1983C83.744 64.8814 83.9704 64.6262 84.3079 64.4369C84.6453 64.2476 85.131 64.1488 85.7607 64.1488H89.9503C90.5841 64.1488 91.0656 64.2435 91.399 64.4369C91.7323 64.6262 91.9546 64.8814 92.0698 65.1983C92.1851 65.5152 92.2427 65.9103 92.2427 66.3836V68.6595C92.2427 69.1533 92.1851 69.5608 92.0698 69.8818C91.9546 70.2028 91.7323 70.4539 91.399 70.6349C91.0656 70.816 90.5841 70.9066 89.9503 70.9066H85.7607ZM88.7609 69.0052C89.0119 69.0052 89.1971 68.9558 89.3124 68.8529C89.4276 68.7541 89.4811 68.6019 89.4729 68.4002V66.6511C89.4729 66.4412 89.4153 66.2889 89.3083 66.1901C89.1971 66.0955 89.0161 66.0461 88.765 66.0461H86.9871C86.7278 66.0461 86.5385 66.0955 86.4315 66.1901C86.3204 66.2848 86.2669 66.4371 86.2669 66.6511V68.4002C86.2586 68.6019 86.308 68.7541 86.4274 68.8529C86.5426 68.9517 86.7278 69.0052 86.9789 69.0052H88.7732H88.7609ZM97.1114 70.9066C96.0372 70.9066 95.2553 70.672 94.7737 70.1987C94.2922 69.7254 94.0494 68.964 94.0494 67.9063V65.1489C94.0494 63.0664 95.0701 62.0293 97.1114 62.0293H101.515C102.169 62.0293 102.688 62.0663 103.075 62.1363C103.462 62.2063 103.655 62.2886 103.655 62.3791L103.186 64.264C102.301 64.1653 100.894 64.1118 98.9634 64.1118H98.1938C97.7328 64.1118 97.4159 64.1941 97.2431 64.3587C97.0702 64.5233 96.9879 64.7991 96.9879 65.1818V67.7582C96.9879 68.1286 97.0702 68.4002 97.2307 68.573C97.3912 68.7418 97.7122 68.8282 98.1938 68.8282H98.8111C101.305 68.8282 102.853 68.7747 103.453 68.6636L104.371 70.2933C104.371 70.3633 104.256 70.4456 104.034 70.5403C103.807 70.6349 103.441 70.7214 102.935 70.7954C102.429 70.8695 101.783 70.9066 100.996 70.9066H97.1073H97.1114ZM107.89 70.9066C106.956 70.9066 106.314 70.7172 105.96 70.3345C105.61 69.9518 105.433 69.3962 105.433 68.6595V66.3836C105.433 65.7004 105.614 65.1571 105.976 64.7538C106.338 64.3505 106.976 64.1529 107.89 64.1529H111.01C112.117 64.1529 112.874 64.3422 113.286 64.7168C113.697 65.0954 113.903 65.651 113.903 66.3836V68.3138H111.265C110.232 68.3138 109.479 68.2891 109.009 68.2438C108.544 68.1985 108.277 68.1779 108.219 68.1779V68.4043C108.211 68.8076 108.45 69.0093 108.944 69.0093H109.413C110.808 69.0093 112.059 68.9599 113.166 68.857L114.072 70.2892C114.072 70.4621 113.841 70.6061 113.384 70.7255C112.927 70.8448 112.166 70.9066 111.1 70.9066H107.89ZM111.117 66.8651V66.6552C111.117 66.433 111.096 66.2889 111.055 66.2189C111.014 66.149 110.915 66.1037 110.759 66.0831C110.602 66.0626 110.289 66.0543 109.816 66.0543H108.944C108.693 66.0543 108.507 66.1037 108.392 66.1984C108.277 66.293 108.219 66.4453 108.219 66.6593V66.8692H111.113L111.117 66.8651ZM115.578 64.1529H117.763L118.364 64.4534C118.796 64.3628 119.311 64.2887 119.907 64.2352C120.504 64.1817 121.06 64.1529 121.574 64.1529H122.327C122.928 64.1529 123.377 64.2599 123.669 64.4781C123.961 64.6962 124.142 64.9349 124.212 65.2024C124.282 65.4699 124.319 65.7621 124.319 66.0831V70.9066H121.562V66.6552C121.562 66.4453 121.504 66.293 121.389 66.1942C121.274 66.0996 121.089 66.0502 120.838 66.0502H118.817C118.628 66.0502 118.504 66.0667 118.446 66.1037C118.393 66.1407 118.364 66.2313 118.364 66.3836V70.9066H115.574V64.1529H115.578ZM128.678 70.9066C127.945 70.9066 127.431 70.7502 127.134 70.4374C126.838 70.1246 126.69 69.639 126.69 68.9764V66.0502H125.455V64.1488H126.089C126.27 64.1488 126.406 64.1159 126.496 64.05C126.587 63.9842 126.653 63.8648 126.694 63.6961C126.764 63.4368 126.863 62.8977 126.994 62.0828H129.468V64.1488H131.987V66.0502H129.468V68.3878C129.46 68.6307 129.509 68.7912 129.624 68.8776C129.74 68.964 129.929 69.0052 130.188 69.0052H131.694L131.995 70.7543C131.291 70.8531 130.497 70.9066 129.612 70.9066H128.678ZM133.201 64.1529H135.341L135.913 64.4534C136.374 64.1529 136.987 64.0006 137.753 64.0006C138.395 64.0006 138.954 64.0871 139.432 64.264C139.909 64.441 140.247 64.6015 140.448 64.7538L139.695 66.7128C139.423 66.5523 139.037 66.3794 138.535 66.1984C138.032 66.0173 137.514 65.9267 136.983 65.9267H136.818C136.506 65.9267 136.283 65.9802 136.147 66.0872C136.012 66.1942 135.946 66.3959 135.946 66.6963V70.9025H133.201V64.1488V64.1529ZM143.815 70.9066C142.881 70.9066 142.239 70.7172 141.885 70.3345C141.535 69.9518 141.358 69.3962 141.358 68.6595V66.3836C141.358 65.7004 141.539 65.1571 141.901 64.7538C142.263 64.3505 142.901 64.1529 143.815 64.1529H146.934C148.041 64.1529 148.799 64.3422 149.21 64.7168C149.622 65.0954 149.828 65.651 149.828 66.3836V68.3138H147.19C146.157 68.3138 145.403 68.2891 144.934 68.2438C144.469 68.1985 144.202 68.1779 144.144 68.1779V68.4043C144.136 68.8076 144.375 69.0093 144.868 69.0093H145.338C146.733 69.0093 147.984 68.9599 149.091 68.857L149.996 70.2892C149.996 70.4621 149.766 70.6061 149.309 70.7255C148.852 70.8448 148.091 70.9066 147.025 70.9066H143.815ZM147.041 66.8651V66.6552C147.041 66.433 147.021 66.2889 146.98 66.2189C146.939 66.149 146.84 66.1037 146.683 66.0831C146.527 66.0626 146.214 66.0543 145.741 66.0543H144.868C144.617 66.0543 144.432 66.1037 144.317 66.1984C144.202 66.293 144.144 66.4453 144.144 66.6593V66.8692H147.037L147.041 66.8651Z" fill="white"/>
<path fill-rule="evenodd" clip-rule="evenodd" d="M54.9141 76.1178L54.7783 75.0107H61.1122C61.8859 75.0107 62.4744 75.1177 62.8777 75.3318C63.277 75.5458 63.5445 75.8256 63.6762 76.1713C63.8079 76.517 63.8737 76.9451 63.8737 77.4554V78.5378C63.8737 79.2868 63.6803 79.8795 63.2934 80.3157C62.9066 80.752 62.2234 80.9742 61.248 80.9742H60.3055C59.3137 80.9742 58.4041 80.9372 57.5851 80.8631V83.0649H54.9182V76.1178H54.9141ZM60.4125 79.114C60.713 79.114 60.9229 79.0563 61.0422 78.9411C61.1616 78.8259 61.2192 78.6324 61.2192 78.3608V77.6653C61.2192 77.3937 61.1616 77.1961 61.0463 77.0768C60.9311 76.9574 60.7253 76.8998 60.4249 76.8998H57.581V79.114H60.4125ZM68.1169 75.0231H70.7426V83.0649H68.1169V75.0231ZM75.3973 76.1178L75.2615 75.0107H81.5953C82.3691 75.0107 82.9576 75.1177 83.3609 75.3318C83.7601 75.5458 84.0276 75.8256 84.1593 76.1713C84.291 76.517 84.3569 76.9451 84.3569 77.4554V78.5378C84.3569 79.2868 84.1634 79.8795 83.7766 80.3157C83.3897 80.752 82.7065 80.9742 81.7311 80.9742H80.7887C79.7968 80.9742 78.8873 80.9372 78.0683 80.8631V83.0649H75.4014V76.1178H75.3973ZM80.8957 79.114C81.1961 79.114 81.406 79.0563 81.5254 78.9411C81.6447 78.8259 81.7023 78.6324 81.7023 78.3608V77.6653C81.7023 77.3937 81.6447 77.1961 81.5295 77.0768C81.4142 76.9574 81.2085 76.8998 80.908 76.8998H78.0642V79.114H80.8957ZM88.6 75.0231H97.3785V76.8833H91.2669V78.0192H95.794V79.9206H91.2669V81.1923H97.1604L97.9794 82.9167C97.9506 82.962 97.8065 82.9991 97.5431 83.0279C97.2797 83.0567 96.8764 83.069 96.3414 83.069H88.6V75.0272V75.0231Z" fill="#DD2020"/>
</svg>
